<svg width="75" height="16" viewBox="0 0 75 16" fill="none" xmlns="http://www.w3.org/2000/svg">
<path fill-rule="evenodd" clip-rule="evenodd" d="M4.18436 12.6541H11.4238V15.6715H0.955566V0.125H4.18436V12.6541ZM21.5981 11.9921C20.2575 13.0157 19.4916 13.2599 18.269 13.2599C17.1688 13.2599 16.3074 12.9075 15.7002 12.2895L23.8435 8.80423C23.6657 7.50547 23.1879 6.34515 22.4527 5.46292C21.3827 4.18097 19.7991 3.50269 17.8708 3.50269C14.3684 3.50269 11.7275 6.16833 11.7275 9.68923C11.7275 13.3014 14.3747 15.875 18.2219 15.875C20.3775 15.875 22.5814 14.821 23.6124 13.5897L21.5981 11.9921ZM31.955 3.5033C30.6195 3.5033 29.1007 4.14197 28.1726 5.42068L28.1732 5.41821L28.1726 5.41883L28.1732 3.70401H24.9879V15.6715H28.1726V8.86188C28.1726 7.63635 29.0937 6.33343 30.7991 6.33343C32.117 6.33343 33.4809 7.27933 33.4809 8.86188V15.6715H36.6662V8.25297C36.6662 5.50038 34.7574 3.5033 31.955 3.5033ZM59.3039 3.70471L56.4243 11.8566L53.5447 3.70471H49.906L54.6788 15.6684H58.1692L62.9419 3.70471H59.3039ZM17.9295 6.11713C16.886 6.11713 16.0219 6.55832 15.4795 7.30982C14.9846 7.99519 14.6814 8.95126 14.8334 10.1737L20.3983 7.79171C19.9481 6.7934 19.0773 6.11713 17.9295 6.11713ZM68.6635 6.31873C66.8847 6.31873 65.5929 7.70951 65.5929 9.68793C65.5929 11.5769 66.9612 13.0571 68.7062 13.0571C70.4857 13.0571 71.7766 11.6281 71.7766 9.68793C71.7766 7.79892 70.409 6.31873 68.6635 6.31873ZM62.4496 9.68799C62.4496 13.1958 65.1792 15.8733 68.6627 15.8733C72.17 15.8733 74.9178 13.1557 74.9178 9.68799C74.9178 6.18005 72.189 3.50269 68.7055 3.50269C65.198 3.50269 62.4496 6.21951 62.4496 9.68799ZM44.1374 6.31873C42.3586 6.31873 41.0676 7.70951 41.0676 9.68793C41.0676 11.5769 42.4352 13.0571 44.1807 13.0571C45.9596 13.0571 47.2505 11.6281 47.2505 9.68793C47.2505 7.79892 45.8829 6.31873 44.1374 6.31873ZM37.9279 9.68806C37.9279 13.1958 40.6567 15.8734 44.1402 15.8734C47.6477 15.8734 50.396 13.1558 50.396 9.68806C50.396 6.18011 47.6665 3.50275 44.1836 3.50275C40.6755 3.50275 37.9279 6.21957 37.9279 9.68806Z" fill="#919EAB"/>
</svg>
