<svg width="17" height="22" viewBox="0 0 17 22" fill="none" xmlns="http://www.w3.org/2000/svg">
<path d="M8.50001 12.5C7.75833 12.5 7.03331 12.2801 6.41662 11.868C5.79994 11.456 5.31929 10.8703 5.03546 10.1851C4.75163 9.49984 4.67737 8.74584 4.82206 8.01841C4.96676 7.29098 5.32391 6.6228 5.84836 6.09835C6.37281 5.5739 7.04099 5.21675 7.76842 5.07205C8.49585 4.92736 9.24985 5.00162 9.93507 5.28545C10.6203 5.56928 11.206 6.04993 11.618 6.66661C12.0301 7.2833 12.25 8.00832 12.25 8.75C12.2489 9.74421 11.8534 10.6974 11.1504 11.4004C10.4474 12.1034 9.49423 12.4989 8.50001 12.5ZM8.50001 6.5C8.055 6.5 7.61999 6.63196 7.24998 6.87919C6.87997 7.12643 6.59158 7.47783 6.42128 7.88896C6.25098 8.3001 6.20643 8.75249 6.29324 9.18895C6.38006 9.62541 6.59435 10.0263 6.90902 10.341C7.22369 10.6557 7.6246 10.8699 8.06106 10.9568C8.49751 11.0436 8.94991 10.999 9.36105 10.8287C9.77218 10.6584 10.1236 10.37 10.3708 10C10.6181 9.63002 10.75 9.19501 10.75 8.75C10.7494 8.15346 10.5121 7.58155 10.0903 7.15973C9.66846 6.73792 9.09655 6.50065 8.50001 6.5Z" fill="#919EAB"/>
<path d="M8.50001 21.5L2.17338 14.0385C2.13746 13.9957 1.91223 13.6999 1.91223 13.6999C0.831409 12.2763 0.247475 10.5374 0.250008 8.75C0.250008 6.56196 1.1192 4.46354 2.66638 2.91637C4.21355 1.36919 6.31197 0.5 8.50001 0.5C10.688 0.5 12.7865 1.36919 14.3336 2.91637C15.8808 4.46354 16.75 6.56196 16.75 8.75C16.7527 10.5367 16.1692 12.2749 15.0889 13.698L15.0878 13.6999C15.0878 13.6999 14.8628 13.9956 14.8293 14.0354L8.50001 21.5ZM3.10938 12.7963C3.11013 12.7968 3.28443 13.0274 3.32433 13.077L8.50001 19.1809L13.6825 13.0684C13.7154 13.027 13.8912 12.7948 13.8916 12.7942C14.7746 11.631 15.2517 10.2103 15.25 8.75C15.25 6.95979 14.5388 5.2429 13.273 3.97703C12.0071 2.71116 10.2902 2 8.50001 2C6.7098 2 4.99291 2.71116 3.72704 3.97703C2.46117 5.2429 1.75001 6.95979 1.75001 8.75C1.74835 10.2111 2.22587 11.6325 3.10938 12.7963Z" fill="#919EAB"/>
</svg>
