<svg width="65" height="18" viewBox="0 0 65 18" fill="none" xmlns="http://www.w3.org/2000/svg">
<path fill-rule="evenodd" clip-rule="evenodd" d="M8.84536 16.622C8.26877 16.7242 7.68613 16.7836 7.09383 16.8441C6.6948 16.8848 6.2914 16.9259 5.88251 16.9809L2.78409 7.82084V17.3741C1.91346 17.4665 1.11171 17.5869 0.291815 17.7099L0.0244141 17.75V0.25H2.59797L6.1195 10.1793V0.25H8.84536V16.622ZM14.1795 6.6587C14.7154 6.6587 15.3969 6.64533 16.0641 6.63224C16.7038 6.6197 17.3303 6.60741 17.8027 6.60741V9.34173C16.6005 9.34173 15.1954 9.34173 14.1795 9.39301V13.4605C14.6308 13.4314 15.0822 13.3996 15.534 13.3677C16.6751 13.2872 17.8186 13.2066 18.9709 13.1698V15.8015L11.4705 16.3998V0.25H18.9709V2.98438H14.1795V6.6587ZM26.2346 2.98444H29.045L29.0452 0.25H20.7153V2.98444H23.5257V15.5966C24.406 15.5625 25.3203 15.5625 26.2346 15.5625V2.98444ZM33.4458 6.47076H37.1537V9.20507H33.4458V15.4088H30.7875V0.25H38.3558V2.98438H33.4458V6.47076ZM46.1323 13.181C45.0163 13.1115 43.8831 13.041 42.7588 13.0161V0.25H40.05V15.5966C42.5218 15.648 44.943 15.8016 47.364 15.9556V13.2553C46.9569 13.2323 46.5455 13.2067 46.1323 13.181ZM49.6486 16.1436L49.7908 16.152C50.612 16.2007 51.4745 16.2518 52.3067 16.3486V0.25H49.6486V16.1436ZM60.7373 8.57278L64.1743 0.25H61.2114L59.3151 4.84718L57.5373 0.25H54.6254L57.7746 8.47015L54.2869 16.4853C54.6928 16.5418 55.093 16.5837 55.4921 16.6255C56.0585 16.6849 56.6229 16.744 57.199 16.8443L59.1797 12.1959L61.1267 17.2544C61.3805 17.2971 61.6342 17.3408 61.888 17.3846C62.6501 17.516 63.4122 17.6474 64.1743 17.75L60.7373 8.57278Z" fill="#919EAB"/>
</svg>
