<svg width="20" height="20" viewBox="0 0 20 20" fill="none" xmlns="http://www.w3.org/2000/svg">
<path d="M18.1251 17.2413L13.4051 12.5213C14.5393 11.1596 15.1049 9.41313 14.9842 7.6451C14.8635 5.87707 14.0658 4.22363 12.7571 3.02876C11.4483 1.83388 9.72934 1.18955 7.95765 1.22981C6.18597 1.27007 4.49801 1.99182 3.24491 3.24491C1.99182 4.49801 1.27007 6.18597 1.22981 7.95765C1.18955 9.72934 1.83388 11.4483 3.02876 12.7571C4.22363 14.0658 5.87707 14.8635 7.6451 14.9842C9.41313 15.1049 11.1596 14.5393 12.5213 13.4051L17.2413 18.1251L18.1251 17.2413ZM2.50015 8.12515C2.50015 7.01263 2.83005 5.92509 3.44813 5.00007C4.06621 4.07504 4.94472 3.35407 5.97255 2.92833C7.00039 2.50258 8.13139 2.39119 9.22253 2.60823C10.3137 2.82527 11.316 3.361 12.1026 4.14767C12.8893 4.93434 13.425 5.93662 13.6421 7.02777C13.8591 8.11891 13.7477 9.24991 13.322 10.2777C12.8962 11.3056 12.1753 12.1841 11.2502 12.8022C10.3252 13.4202 9.23767 13.7501 8.12515 13.7501C6.63381 13.7485 5.20403 13.1553 4.1495 12.1008C3.09497 11.0463 2.5018 9.61648 2.50015 8.12515Z" fill="white"/>
</svg>
