<svg width="76" height="24" viewBox="0 0 76 24" fill="none" xmlns="http://www.w3.org/2000/svg">
<path d="M26.8712 9.4116C26.8712 7.18761 28.5029 5.63465 31.4683 5.63465C33.2777 5.63465 34.7582 6.20874 35.5604 6.77112C35.6751 6.85141 35.8799 7.04623 35.7572 7.40854C35.5998 7.79877 35.3112 8.38561 35.1041 8.76683C34.9836 8.98896 34.6758 8.95969 34.5181 8.88029C33.9467 8.59258 33.0096 8.10584 32.1487 8.01609C31.9307 7.99251 31.7114 7.98308 31.4922 7.98788C30.734 8.00469 30.1005 8.26629 29.8775 8.84112C29.8338 8.94989 29.8094 9.06537 29.8054 9.18242C29.7846 9.93991 30.8454 10.2138 32.1306 10.4332C34.5197 10.84 36.3273 11.5361 36.3273 13.9798C36.3273 16.0551 34.6676 17.9306 31.4157 17.8731C29.272 17.83 27.7511 17.1102 26.9361 16.4117C26.9083 16.388 26.5981 16.074 26.7644 15.6964C26.9547 15.2102 27.2759 14.6531 27.528 14.3573C27.6682 14.1673 28.0381 14.1371 28.2303 14.2555C28.9021 14.6704 30.0077 15.3356 31.2821 15.3797C31.3827 15.3831 31.4823 15.3837 31.5802 15.3812C32.7265 15.3536 33.4201 14.9216 33.4056 14.194C33.3932 13.553 32.4843 13.1785 31.0369 12.9074C28.7286 12.4753 26.8712 11.7192 26.8712 9.4116ZM47.8424 12.5783C46.2146 12.5995 44.7221 13.0416 44.6791 14.3058C44.6786 15.309 45.4975 15.8017 46.6469 15.7372C47.7494 15.6317 48.5902 15.1565 48.9607 14.526C49.0977 14.2923 49.1185 13.4179 49.1102 13.0442C49.1081 12.9646 48.9498 12.8141 48.8805 12.7851C48.5346 12.6403 48.2788 12.5959 47.8424 12.5783ZM42.426 7.48433C43.1872 6.80744 44.6964 5.75382 47.1018 5.80936C50.276 5.87495 51.9529 7.35376 52.1091 10.8913C52.1734 12.3502 52.0668 16.4193 52.0414 17.4332C52.0377 17.5786 51.9881 17.6792 51.7909 17.6829C51.2681 17.7038 50.0605 17.6955 49.5056 17.6883C49.2256 17.6748 49.1931 17.5367 49.1895 17.3922C49.1871 17.2976 49.1789 17.0173 49.173 16.7887C49.1699 16.6674 49.0552 16.6709 49.0259 16.702C48.2813 17.492 47.0619 17.8735 45.7651 17.8735C43.7942 17.8735 41.8292 16.7213 41.8353 14.4395C41.8413 12.1027 43.5087 10.95 45.3404 10.6782C46.5134 10.5047 47.8355 10.659 48.8367 11.0543C48.9007 11.0798 49.0315 11.0429 49.0326 10.9527C49.0366 10.6549 49.0221 10.0874 48.9646 9.81849C48.8176 9.13319 48.2424 8.58177 47.0338 8.43319C46.7849 8.40272 46.5343 8.39266 46.2835 8.41247C45.3228 8.48752 44.1666 9.23195 43.6878 9.51066C43.5752 9.5761 43.3988 9.52822 43.3417 9.45513C43.0623 9.09642 42.36 8.04731 42.3047 7.87966C42.2494 7.71246 42.3276 7.57228 42.426 7.48433ZM53.1557 11.8345C53.1369 8.57532 55.422 5.82587 59.1325 5.8017C61.4479 5.78669 63.1299 6.8298 63.4265 7.32179C63.4868 7.43736 63.4558 7.53386 63.4141 7.65018C63.2181 8.06142 62.723 8.85598 62.3702 9.30624C62.2199 9.49806 62.0568 9.33371 61.8673 9.20839C61.3412 8.86018 60.3417 8.43439 59.358 8.43439C57.5734 8.43469 56.2445 9.65069 56.2593 11.8879C56.2732 14.0347 57.5461 15.2146 59.3642 15.2574C60.3147 15.2811 61.2355 14.7382 61.7309 14.2935C61.8865 14.1586 62.0475 14.2261 62.2252 14.3642C62.5741 14.7185 63.0745 15.2656 63.3519 15.6422C63.5336 15.8514 63.3977 16.0561 63.3323 16.1384C62.5795 17.085 61.1257 17.8816 59.2017 17.8924C55.1731 17.9205 53.1743 15.1052 53.1557 11.8345ZM72.3862 17.7455C72.5753 17.7314 74.5932 17.4546 75.2126 17.3137C75.3664 17.2789 75.421 17.1504 75.3351 17.0231C74.9892 16.5077 74.0799 15.0441 73.1275 13.7338C72.2515 12.5291 71.3282 11.4695 71.0296 11.0618C70.9568 10.9628 70.9608 10.8652 71.0401 10.7884C71.6081 10.236 73.9841 7.92094 74.8775 6.96488C75.2233 6.59296 75.0157 6.43297 74.7219 6.34607C74.1545 6.17797 73.2367 5.96845 72.7147 5.85904C72.4946 5.81281 72.2296 5.82902 72.0372 6.02563C71.144 6.85336 68.418 9.5722 67.6042 10.3849C67.4577 10.5316 67.3724 10.499 67.3716 10.2895C67.365 8.72255 67.3339 2.01395 67.2775 0.910503C67.2736 0.764618 67.0971 0.653854 66.9975 0.648601C66.4858 0.622035 65.1931 0.614381 64.6837 0.644098C64.541 0.660157 64.4046 0.804692 64.3922 0.926863C64.2747 2.69129 64.4421 15.6435 64.5118 17.4554C64.5168 17.5864 64.615 17.688 64.7402 17.6954C65.2484 17.7246 66.5055 17.7227 67.0924 17.7117C67.3812 17.7117 67.4165 17.51 67.4165 17.51L67.46 14.0344C67.46 14.0344 67.4897 13.8799 67.5379 13.8288C67.7448 13.6074 68.3172 12.9978 68.5613 12.7622C68.6199 12.7056 68.7123 12.7096 68.7722 12.7896C69.0621 13.1783 69.889 14.4421 70.6555 15.5707C71.3598 16.6075 72.0172 17.5277 72.0631 17.5927C72.1692 17.7428 72.2929 17.7484 72.3862 17.7455ZM38.0667 17.7335C38.2442 17.7394 39.5906 17.7379 40.1872 17.7371C40.3881 17.741 40.4925 17.5899 40.4991 17.4564C40.6258 14.9161 40.5716 2.82112 40.4916 0.911254C40.4849 0.746158 40.4138 0.684172 40.3003 0.669163C39.7883 0.601023 38.3333 0.616932 37.8669 0.738203C37.7757 0.761767 37.7219 0.830657 37.7191 0.919208C37.6049 5.84208 37.6819 17.1917 37.7061 17.4066C37.7301 17.6218 37.8431 17.726 38.0667 17.7335Z" fill="#919EAB"/>
<path d="M2.03154 12.6825C1.20178 12.6888 0.498877 12.1974 0.239707 11.4304C0.230093 11.4015 0.221129 11.3723 0.212824 11.3429C-0.0696051 10.3608 0.478035 9.33327 1.45959 9.00427L17.2031 3.76275C17.39 3.70901 17.5835 3.68094 17.7781 3.6793C18.6299 3.6727 19.3521 4.17489 19.6176 4.95805L19.6412 5.0337C19.9357 6.0567 19.204 6.96983 18.3272 7.2625C18.3266 7.26295 18.1671 7.31653 2.67101 12.5743C2.46504 12.644 2.24915 12.6806 2.03154 12.6825Z" fill="#919EAB"/>
<path d="M4.65558 20.3767C3.81932 20.3827 3.114 19.8982 2.85785 19.1422C2.84813 19.1135 2.83906 19.0845 2.83066 19.0553C2.54431 18.0615 3.09134 17.0232 4.07622 16.6937L19.8203 11.4042C20.0238 11.3366 20.2339 11.3021 20.4452 11.3002C21.2837 11.2939 22.0204 11.803 22.2803 12.5675L22.3045 12.6471C22.4566 13.1755 22.3667 13.7694 22.0644 14.2381C21.839 14.5866 21.1283 14.8934 21.1283 14.8934L5.32434 20.2634C5.1088 20.3359 4.88312 20.3739 4.65558 20.3767Z" fill="#919EAB"/>
<path d="M17.7617 20.4102C17.3536 20.4141 16.9548 20.2895 16.6223 20.0543C16.2898 19.8192 16.0407 19.4854 15.9108 19.101L10.6564 3.59094L10.6302 3.50389C10.3455 2.51481 10.8929 1.48311 11.8742 1.15442C12.0705 1.08883 12.2735 1.05461 12.4779 1.05281C12.7814 1.05056 13.0752 1.11855 13.3519 1.25438C13.5798 1.36639 13.7832 1.52207 13.9503 1.71247C14.1175 1.90287 14.2451 2.12423 14.3259 2.36383L19.5798 17.8725L19.5951 17.9223C19.8902 18.9492 19.3439 19.9815 18.3627 20.3102C18.1688 20.3746 17.966 20.4083 17.7617 20.4102Z" fill="#919EAB"/>
<path d="M9.95133 23.0226C9.543 23.0264 9.14393 22.9017 8.8113 22.6664C8.47867 22.431 8.22957 22.097 8.09968 21.7123L2.84666 6.20287C2.76526 5.96359 2.73216 5.71072 2.74924 5.45871C2.76632 5.20671 2.83325 4.96053 2.94619 4.73427C3.05914 4.508 3.21588 4.3061 3.40746 4.14011C3.59903 3.97412 3.82166 3.84732 4.06261 3.76695C4.25672 3.70246 4.45981 3.66863 4.66447 3.66669C5.07262 3.66268 5.47157 3.7872 5.80413 4.02239C6.13668 4.25758 6.38576 4.59137 6.51566 4.9759L11.7688 20.4859C11.8503 20.7253 11.8834 20.9783 11.8662 21.2304C11.8491 21.4826 11.7821 21.7288 11.669 21.9552C11.5559 22.1815 11.399 22.3834 11.2072 22.5494C11.0155 22.7154 10.7926 22.8421 10.5515 22.9223C10.3578 22.9868 10.1556 23.0208 9.95133 23.0226Z" fill="#919EAB"/>
<path d="M15.1714 16.9173L18.8351 15.6725L17.6374 12.138L13.9694 13.3697L15.1714 16.9173Z" fill="#919EAB"/>
<path d="M7.37315 19.567L11.0366 18.3223L9.82982 14.7607L6.16278 15.993L7.37315 19.567Z" fill="#919EAB"/>
<path d="M12.5628 9.2184L16.2268 7.97522L15.0432 4.48195L11.3724 5.70411L12.5628 9.2184Z" fill="#919EAB"/>
<path d="M4.7638 11.8645L8.42782 10.6213L7.22969 7.08348L3.55888 8.30548L4.7638 11.8645Z" fill="#919EAB"/>
</svg>
