<svg width="76" height="24" viewBox="0 0 76 24" fill="none" xmlns="http://www.w3.org/2000/svg">
<path d="M11.3458 0.625C5.12137 0.625 0.0751953 5.6395 0.0751953 11.8251C0.0751953 18.0109 5.12137 23.025 11.3458 23.025C17.571 23.025 22.6166 18.0109 22.6166 11.8251C22.6166 5.6399 17.571 0.625535 11.3457 0.625535L11.3458 0.625ZM16.5145 16.7787C16.4664 16.857 16.4032 16.9251 16.3286 16.9792C16.254 17.0332 16.1694 17.0721 16.0796 17.0936C15.9899 17.1151 15.8967 17.1187 15.8055 17.1044C15.7143 17.0901 15.6269 17.058 15.5482 17.0101C12.9019 15.4038 9.57065 15.04 5.64746 15.9308C5.4658 15.9718 5.27517 15.9395 5.11747 15.841C4.95976 15.7424 4.84789 15.5856 4.80644 15.4051C4.78579 15.3158 4.78308 15.2232 4.79847 15.1328C4.81387 15.0424 4.84705 14.9559 4.89613 14.8783C4.94521 14.8006 5.00923 14.7334 5.0845 14.6803C5.15978 14.6273 5.24484 14.5896 5.33482 14.5692C9.62812 13.5945 13.3108 14.0142 16.2816 15.8184C16.6127 16.0204 16.7177 16.4497 16.5145 16.7787ZM17.894 13.7291C17.6396 14.1399 17.0986 14.2697 16.6854 14.0169C13.6559 12.1664 9.03782 11.6305 5.45447 12.7114C4.98974 12.8509 4.49891 12.5906 4.35786 12.1296C4.29056 11.908 4.31445 11.6688 4.4243 11.4647C4.53415 11.2605 4.72099 11.108 4.94385 11.0405C9.03701 9.80632 14.1256 10.4042 17.6046 12.5287C18.0178 12.7815 18.1484 13.3191 17.894 13.7292V13.7291ZM18.0124 10.5534C14.3799 8.40935 8.38683 8.21221 4.91868 9.25823C4.36176 9.42608 3.77281 9.11366 3.60404 8.56022C3.52289 8.29433 3.55132 8.00729 3.68309 7.76222C3.81486 7.51716 4.03918 7.33414 4.30672 7.2534C8.28791 6.05237 14.9062 6.28442 19.0883 8.75161C19.2075 8.82168 19.3116 8.91442 19.3947 9.02454C19.4777 9.13466 19.5381 9.25997 19.5724 9.39332C19.6066 9.52666 19.6141 9.66541 19.5943 9.80162C19.5745 9.93783 19.5279 10.0688 19.4571 10.1871C19.161 10.6849 18.5123 10.849 18.013 10.5534H18.0124ZM30.7389 10.9643C28.7928 10.5031 28.4469 10.1795 28.4469 9.49937C28.4469 8.85686 29.0552 8.42447 29.961 8.42447C30.8385 8.42447 31.7079 8.75281 32.6204 9.42876C32.6473 9.44922 32.6823 9.45738 32.716 9.45203C32.7329 9.44961 32.7491 9.44379 32.7637 9.43491C32.7783 9.42603 32.7909 9.41429 32.8007 9.4004L33.7509 8.06937C33.7697 8.04298 33.7776 8.01048 33.7731 7.97848C33.7686 7.94648 33.752 7.91738 33.7267 7.89711C32.6406 7.03138 31.4185 6.61049 29.9892 6.61049C27.8884 6.61049 26.42 7.86354 26.42 9.65639C26.42 11.579 27.6865 12.2597 29.8748 12.7852C31.7362 13.2115 32.0511 13.5686 32.0511 14.2068C32.0511 14.9143 31.4159 15.3543 30.393 15.3543C29.2571 15.3543 28.3298 14.9732 27.2935 14.0824C27.2676 14.0607 27.2344 14.0497 27.2006 14.0517C27.1656 14.0543 27.1347 14.0704 27.1131 14.0958L26.0472 15.3557C26.0028 15.4092 26.0082 15.4867 26.0593 15.5322C27.2652 16.6022 28.7484 17.1666 30.3499 17.1666C32.6137 17.1666 34.0766 15.9375 34.0766 14.0343C34.0807 12.4284 33.113 11.539 30.7429 10.966L30.7389 10.9643ZM39.199 9.05708C38.2178 9.05708 37.413 9.4412 36.7482 10.2283V9.34236C36.7483 9.30886 36.7351 9.27668 36.7113 9.25288C36.6876 9.22908 36.6554 9.21561 36.6216 9.21544H34.8788C34.8088 9.21544 34.7522 9.27241 34.7522 9.34236V19.1861C34.7522 19.2557 34.8088 19.3132 34.8788 19.3132H36.6216C36.6916 19.3132 36.7482 19.2557 36.7482 19.1861V16.0792C37.413 16.8188 38.2178 17.1813 39.199 17.1813C41.0226 17.1813 42.8691 15.7863 42.8691 13.1196C42.8718 10.4523 41.0253 9.05695 39.2003 9.05695L39.199 9.05708ZM40.8423 13.1196C40.8423 14.477 40.0011 15.4252 38.7952 15.4252C37.6041 15.4252 36.7051 14.4342 36.7051 13.1196C36.7051 11.8049 37.6041 10.8141 38.7952 10.8141C39.9809 10.814 40.8423 11.7833 40.8423 13.1194V13.1196ZM47.5998 9.05708C45.2513 9.05708 43.4115 10.8541 43.4115 13.1486C43.4115 15.4185 45.2392 17.196 47.5716 17.196C49.9282 17.196 51.7733 15.4051 51.7733 13.1196C51.7733 10.8418 49.9403 9.05735 47.5998 9.05735V9.05708ZM47.5998 15.4386C46.3509 15.4386 45.4088 14.4408 45.4088 13.1189C45.4088 11.791 46.3186 10.8273 47.5716 10.8273C48.8286 10.8273 49.7761 11.8247 49.7761 13.1479C49.7761 14.4756 48.8609 15.4386 47.5998 15.4386ZM56.788 9.21544H54.8702V7.26731C54.8702 7.25073 54.867 7.23429 54.8607 7.21895C54.8544 7.2036 54.8451 7.18965 54.8333 7.17787C54.8216 7.1661 54.8076 7.15674 54.7922 7.15033C54.7769 7.14392 54.7603 7.14059 54.7437 7.14052H53.0008C52.9308 7.14052 52.8729 7.19749 52.8729 7.26731V9.21544H52.0358C51.9658 9.21544 51.9093 9.27241 51.9093 9.34236V10.8305C51.9093 10.9004 51.9658 10.9575 52.0358 10.9575H52.8729V14.8086C52.8729 16.3641 53.6522 17.1532 55.1905 17.1532C55.815 17.1532 56.3331 17.0248 56.8217 16.7493C56.8621 16.7279 56.8863 16.6851 56.8863 16.6396V15.2219C56.8863 15.1791 56.8634 15.1377 56.8257 15.1149C56.8074 15.1033 56.7863 15.0966 56.7645 15.0957C56.7428 15.0948 56.7212 15.0995 56.7019 15.1096C56.3668 15.2768 56.0424 15.3543 55.679 15.3543C55.1205 15.3543 54.8702 15.1015 54.8702 14.5371V10.9581H56.788C56.858 10.9581 56.9145 10.9012 56.9145 10.8312V9.34316C56.9151 9.32656 56.9123 9.31001 56.9062 9.29452C56.9002 9.27904 56.891 9.26493 56.8793 9.25307C56.8676 9.2412 56.8536 9.23182 56.8381 9.22549C56.8227 9.21916 56.8061 9.21601 56.7894 9.21624L56.788 9.21544ZM63.4689 9.22306V8.98379C63.4689 8.27989 63.7407 7.96599 64.3491 7.96599C64.7125 7.96599 65.0045 8.03768 65.3316 8.14601C65.3719 8.15858 65.4137 8.1523 65.446 8.12836C65.4623 8.11661 65.4757 8.10112 65.4848 8.0832C65.4939 8.06529 65.4986 8.04546 65.4984 8.02537V6.56622C65.4988 6.53896 65.4901 6.51235 65.4739 6.49041C65.4576 6.46847 65.4346 6.45241 65.4083 6.44464C65.0637 6.34259 64.6223 6.23787 63.9601 6.23787C62.3518 6.23787 61.4999 7.13851 61.4999 8.84148V9.20794H60.6628C60.5928 9.20794 60.5349 9.26492 60.5349 9.33473V10.8305C60.5349 10.9004 60.5928 10.9575 60.6628 10.9575H61.4999V16.8964C61.4999 16.9673 61.5578 17.0235 61.6277 17.0235H63.3693C63.4406 17.0235 63.4971 16.9673 63.4971 16.8964V10.9579H65.1243L67.6168 16.8964C67.3342 17.5197 67.0556 17.644 66.6761 17.644C66.3692 17.644 66.0449 17.5531 65.7151 17.3725C65.6839 17.3569 65.6478 17.3535 65.6142 17.3632C65.5805 17.3752 65.5523 17.3993 65.5388 17.4314L64.948 18.7193C64.9197 18.7809 64.9439 18.8518 65.0032 18.8839C65.6196 19.2155 66.1754 19.3573 66.8631 19.3573C68.1498 19.3573 68.8617 18.7608 69.4876 17.1585L72.5104 9.39639C72.5182 9.3772 72.5211 9.35636 72.5188 9.33577C72.5164 9.31518 72.5089 9.29551 72.4969 9.27856C72.4855 9.2616 72.4701 9.24769 72.4521 9.23808C72.434 9.22846 72.4138 9.22344 72.3933 9.22346H70.5791C70.5239 9.22346 70.4754 9.25783 70.4579 9.30852L68.5993 14.5826L66.5644 9.30504C66.5553 9.28113 66.5391 9.26052 66.5179 9.24595C66.4968 9.23138 66.4717 9.22354 66.4459 9.22346H63.4689V9.22306ZM59.5955 9.21544H57.8526C57.7826 9.21544 57.7247 9.27241 57.7247 9.34236V16.8964C57.7247 16.9673 57.7826 17.0235 57.8526 17.0235H59.5955C59.6655 17.0235 59.7234 16.9673 59.7234 16.8964V9.34289C59.7234 9.3262 59.7201 9.30967 59.7137 9.29425C59.7073 9.27883 59.6979 9.26481 59.686 9.25302C59.6741 9.24122 59.66 9.23188 59.6445 9.22552C59.6289 9.21916 59.6123 9.21592 59.5955 9.21597V9.21544ZM58.7341 5.77565C58.0437 5.77565 57.4838 6.33096 57.4838 7.01694C57.4838 7.70331 58.0437 8.25929 58.7341 8.25929C59.4246 8.25929 59.9831 7.70331 59.9831 7.01694C59.9831 6.33109 59.4232 5.77565 58.7341 5.77565ZM73.9989 11.6444C73.3098 11.6444 72.7728 11.094 72.7728 10.4257C72.7728 9.75737 73.3165 9.20072 74.0056 9.20072C74.6947 9.20072 75.2317 9.75095 75.2317 10.4187C75.2317 11.0871 74.688 11.6444 73.9989 11.6444ZM74.0056 9.3219C73.3771 9.3219 72.902 9.81809 72.902 10.4257C72.902 11.033 73.3744 11.5225 73.9989 11.5225C74.6274 11.5225 75.1025 11.0267 75.1025 10.4187C75.1025 9.8114 74.6301 9.3219 74.0056 9.3219ZM74.2775 10.5441L74.6247 11.0266H74.3313L74.0191 10.5839H73.7513V11.0266H73.5063V9.74747H74.0797C74.3798 9.74747 74.5763 9.89954 74.5763 10.1555C74.5776 10.3652 74.4551 10.4934 74.2788 10.5441H74.2775ZM74.0702 9.96695H73.7513V10.3715H74.0702C74.229 10.3715 74.3246 10.2941 74.3246 10.169C74.3246 10.0374 74.229 9.96695 74.0702 9.96695Z" fill="#919EAB"/>
</svg>
