<svg width="20" height="20" viewBox="0 0 20 20" fill="none" xmlns="http://www.w3.org/2000/svg">
<path d="M13.125 14.3748C13.8154 14.3748 14.375 13.8152 14.375 13.1248C14.375 12.4345 13.8154 11.8748 13.125 11.8748C12.4346 11.8748 11.875 12.4345 11.875 13.1248C11.875 13.8152 12.4346 14.3748 13.125 14.3748Z" fill="white"/>
<path d="M4.375 5.62483C5.06536 5.62483 5.625 5.06518 5.625 4.37483C5.625 3.68447 5.06536 3.12483 4.375 3.12483C3.68464 3.12483 3.125 3.68447 3.125 4.37483C3.125 5.06518 3.68464 5.62483 4.375 5.62483Z" fill="white"/>
<path d="M16.875 19.3748C16.3805 19.3748 15.8972 19.2282 15.4861 18.9535C15.075 18.6788 14.7545 18.2883 14.5653 17.8315C14.3761 17.3747 14.3266 16.8721 14.423 16.3871C14.5195 15.9021 14.7576 15.4567 15.1072 15.1071C15.4569 14.7574 15.9023 14.5193 16.3873 14.4229C16.8722 14.3264 17.3749 14.3759 17.8317 14.5651C18.2885 14.7543 18.679 15.0748 18.9537 15.4859C19.2284 15.897 19.375 16.3804 19.375 16.8748C19.3731 17.5373 19.109 18.172 18.6406 18.6404C18.1722 19.1089 17.5374 19.3729 16.875 19.3748ZM16.875 15.6248C16.6278 15.6248 16.3861 15.6981 16.1805 15.8355C15.975 15.9728 15.8148 16.1681 15.7201 16.3965C15.6255 16.6249 15.6008 16.8762 15.649 17.1187C15.6972 17.3612 15.8163 17.5839 15.9911 17.7587C16.1659 17.9335 16.3887 18.0526 16.6311 18.1008C16.8736 18.149 17.1249 18.1243 17.3534 18.0297C17.5818 17.9351 17.777 17.7748 17.9143 17.5693C18.0517 17.3637 18.125 17.1221 18.125 16.8748C18.124 16.5436 17.992 16.2262 17.7578 15.992C17.5236 15.7578 17.2062 15.6258 16.875 15.6248Z" fill="white"/>
<path d="M18.75 9.99985C18.7432 7.6813 17.8192 5.45965 16.1797 3.82017C14.5402 2.1807 12.3186 1.25665 10 1.24985C8.50704 1.22855 7.0369 1.6177 5.75 2.37485L6.4375 3.43735C6.92605 3.20254 7.42676 2.99391 7.9375 2.81235C6.90431 4.85105 6.32841 7.09064 6.25 9.37485H2.5C2.57003 8.34288 2.86893 7.33944 3.375 6.43735L2.4375 5.62485C1.65982 6.95171 1.24991 8.46189 1.25 9.99985C1.24986 11.149 1.47609 12.2868 1.91577 13.3485C2.35545 14.4102 2.99996 15.3748 3.8125 16.1873C4.62504 16.9999 5.58969 17.6444 6.65135 18.0841C7.71302 18.5238 8.85089 18.75 10 18.7499C11.1142 18.7604 12.2192 18.5478 13.25 18.1249L12.875 16.9374C11.8503 17.3755 10.7374 17.5682 9.625 17.4999C8.29217 15.4499 7.55637 13.0694 7.5 10.6249H18.6875C18.7392 10.4208 18.7602 10.2101 18.75 9.99985ZM8 17.2499C6.75716 16.8773 5.62142 16.213 4.6875 15.3124C3.44742 14.0434 2.67598 12.3904 2.5 10.6249H6.25C6.336 12.9355 6.93371 15.1982 8 17.2499ZM7.5 9.37485C7.54972 6.9383 8.26278 4.56141 9.5625 2.49985H10.4375C11.7372 4.56141 12.4503 6.9383 12.5 9.37485H7.5ZM13.75 9.37485C13.7025 7.05869 13.1025 4.78736 12 2.74985C13.4705 3.17371 14.7778 4.03403 15.7487 5.21702C16.7196 6.4 17.3085 7.84988 17.4375 9.37485H13.75Z" fill="white"/>
</svg>
